<svg xmlns="http://www.w3.org/2000/svg" version="1.1" xmlns:xlink="http://www.w3.org/1999/xlink" xmlns:svgjs="http://svgjs.com/svgjs" width="44" height="44"><svg width="44" height="44" viewBox="0 0 11.641667 11.641667" version="1.1" id="SvgjsSvg1004" xml:space="preserve" inkscape:version="1.3.2 (091e20ef0f, 2023-11-25)" sodipodi:docname="drawing.svg" xmlns:inkscape="http://www.inkscape.org/namespaces/inkscape" xmlns:sodipodi="http://sodipodi.sourceforge.net/DTD/sodipodi-0.dtd" xmlns="http://www.w3.org/2000/svg" xmlns:svg="http://www.w3.org/2000/svg"><sodipodi:namedview id="SvgjsSodipodi:namedview1003" pagecolor="#505050" bordercolor="#eeeeee" borderopacity="1" inkscape:showpageshadow="0" inkscape:pageopacity="0" inkscape:pagecheckerboard="0" inkscape:deskcolor="#505050" inkscape:document-units="mm" inkscape:zoom="3.5929726" inkscape:cx="16.281783" inkscape:cy="31.0328" inkscape:window-width="1366" inkscape:window-height="652" inkscape:window-x="0" inkscape:window-y="30" inkscape:window-maximized="1" inkscape:current-layer="layer1"></sodipodi:namedview><defs id="SvgjsDefs1002"></defs><g inkscape:label="Layer 1" inkscape:groupmode="layer" id="SvgjsG1001"><path style="fill:#2a2835;fill-opacity:1;stroke-width:0.999996" d="M 0.79375,5.8208738 V 3.3762156 l 0.6456276,0.011341 0.6456277,0.011365 0.6900522,1.6451444 c 0.3795281,0.9048298 0.6993702,1.6455134 0.71076,1.6459574 0.0114,4.72e-4 0.3357542,-0.7445277 0.7208105,-1.655502 L 4.9067301,3.3782394 H 5.5423086 6.1778854 V 5.8218443 8.2654504 H 5.5566393 4.9353923 v -1.125165 c 0,-0.6188381 -0.013982,-1.1114595 -0.031066,-1.0947171 -0.01708,0.016721 -0.246587,0.51841 -0.5100071,1.1148151 l -0.4789443,1.08436 H 3.4906059 3.0658364 L 2.582102,7.1428924 2.0983676,6.0410409 l -0.01102,1.1121995 -0.01102,1.11221 H 1.4350387 0.79375 Z m 5.8811322,9.241e-4 V 3.3781837 h 1.2348867 c 0.7160214,0 1.338143,0.01904 1.4806359,0.045274 0.7090542,0.1306432 1.2180832,0.6310165 1.3430562,1.3202071 0.112244,0.6189768 -0.156498,1.2841993 -0.650003,1.6089883 l -0.1739426,0.114477 0.4571656,0.8431543 c 0.25144,0.463728 0.46703,0.868868 0.479092,0.900293 0.01812,0.04721 -0.08029,0.05516 -0.56873,0.04565 l -0.5906544,-0.01155 -0.418572,-0.775758 -0.4185735,-0.775758 -0.465934,-7.76e-4 -0.4659338,-7.85e-4 v 0.78692 0.786931 H 7.2961282 6.6748822 Z M 9.201283,5.5925944 C 9.3821629,5.4874727 9.4910494,5.2777098 9.4911354,5.0342216 9.4912244,4.7722536 9.377416,4.5776996 9.1583826,4.46538 8.9978703,4.3830531 8.9148104,4.3721964 8.4470122,4.3721964 H 7.9173753 v 0.6350634 c 0,0.3492844 0.013982,0.6491449 0.031064,0.6663681 0.01708,0.01718 0.2733492,0.024948 0.5694759,0.017281 0.4496469,-0.011721 0.5623117,-0.027904 0.6833698,-0.098283 z" id="SvgjsPath1000"></path></g></svg><style>@media (prefers-color-scheme: light) { :root { filter: none; } }
@media (prefers-color-scheme: dark) { :root { filter: invert(100%); } }
</style></svg>